HIERARCHY
ROOT Hips
{
  OFFSET 125.339 82.5092 -297.747
  CHANNELS 6 Xposition Yposition Zposition Zrotation Xrotation Yrotation
  JOINT RightUpLeg
  {
    OFFSET -8.9458 -8.66707 0.101652
    CHANNELS 3 Zrotation Xrotation Yrotation
    JOINT RightLeg
    {
      OFFSET 0 -44.4227 1.3727
      CHANNELS 3 Zrotation Xrotation Yrotation
      JOINT RightFoot
      {
        OFFSET 0.253549 -42.0924 -1.46059
        CHANNELS 3 Zrotation Xrotation Yrotation
        JOINT RightToes
        {
          OFFSET 0.04 -4.41509 8.4991
          CHANNELS 3 Zrotation Xrotation Yrotation
          End Site
          {
            OFFSET -0.08 -0.137448 9.77979
          }
        }
      }
    }
  }
  JOINT Spine
  {
    OFFSET 0 11.8905 0
    CHANNELS 3 Zrotation Xrotation Yrotation
    JOINT Spine1
    {
      OFFSET 0 25.6574 0.127663
      CHANNELS 3 Zrotation Xrotation Yrotation
      JOINT HEad
      {
        OFFSET 0 8.73416 0.011341
        CHANNELS 3 Zrotation Xrotation Yrotation
        End Site
        {
          OFFSET -0.29 12.7742 2.51395
        }
      }
      JOINT LeftShoulder1
      {
        OFFSET 8.99 -0.362252 -0.22
        CHANNELS 3 Zrotation Xrotation Yrotation
        JOINT LeftArm
        {
          OFFSET 10.2827 -0.00338 0.322123
          CHANNELS 3 Zrotation Xrotation Yrotation
          JOINT LeftForeArm
          {
            OFFSET 32.7669 0.099144 -1.42434
            CHANNELS 3 Zrotation Xrotation Yrotation
            JOINT LeftHand
            {
              OFFSET 27.5643 0.085362 1.02216
              CHANNELS 3 Zrotation Xrotation Yrotation
              End Site
              {
                OFFSET 16.7443 -0.6 1.50291
              }
            }
          }
        }
      }
      JOINT RightShoulder
      {
        OFFSET -8.99 -0.362252 -0.22
        CHANNELS 3 Zrotation Xrotation Yrotation
        JOINT RightArm
        {
          OFFSET -10.2827 -0.00338 0.322123
          CHANNELS 3 Zrotation Xrotation Yrotation
          JOINT RightForeArm
          {
            OFFSET -32.8971 0.099144 -1.42434
            CHANNELS 3 Zrotation Xrotation Yrotation
            JOINT RightHand
            {
              OFFSET -27.4921 0.085362 1.02216
              CHANNELS 3 Zrotation Xrotation Yrotation
              End Site
              {
                OFFSET -16.6312 -0.6 1.50291
              }
            }
          }
        }
      }
    }
  }
  JOINT LeftUpLeg
  {
    OFFSET 8.9458 -8.66707 0.101652
    CHANNELS 3 Zrotation Xrotation Yrotation
    JOINT LeftLeg
    {
      OFFSET 0 -44.4227 1.3727
      CHANNELS 3 Zrotation Xrotation Yrotation
      JOINT LeftFoot
      {
        OFFSET -0.253549 -42.0924 -1.46059
        CHANNELS 3 Zrotation Xrotation Yrotation
        JOINT LeftToes
        {
          OFFSET -0.04 -4.41509 8.4991
          CHANNELS 3 Zrotation Xrotation Yrotation
          End Site
          {
            OFFSET 0.08 -0.047448 9.77979
          }
        }
      }
    }
  }
}
MOTION
Frames:	12
Frame Time:	0.0166667
129.544 97.921 -292.309 -5.16055 -4.23446 -45.5629 -14.3613 3.42312 -2.45059 11.4684 29.9149 -0.370621 -21.2915 -0.166214 -0.96643 0.0462048 0.000533403 0.662642 3.85419 9.9133 3.21819 1.18304e-005 0.0300089 -0.0229114 -36.0594 25.1302 40.0502 4.51736e-032 -8.13775e-016 3.18055e-015 167.913 -69.5394 -166.174 -95.0664 56.9408 -43.2255 6.21812 15.791 -3.13791 19.348 9.48181 4.16077 77.8486 -16.1627 79.1333 55.6176 55.4744 64.2784 -13.1063 19.4819 -3.24937 16.967 -19.2009 11.5961 3.1297 19.129 -9.33163 13.019 -4.79174 0.994533 -1.18446e-009 1.5602e-007 -4.87131e-009 
129.361 97.5519 -292.526 -5.3491 -4.42208 -45.2171 -14.608 3.16465 -2.0821 11.5978 33.1362 -1.98516 -19.0223 -0.0555204 -0.868407 0.0462048 0.000533403 0.662642 3.88287 10.6818 2.80557 4.8701e-006 0.0330696 -0.00873162 -34.9929 24.1955 39.0221 -1.54487e-031 -1.39149e-015 -6.36111e-015 173.671 -68.5526 -159.632 -97.7359 56.2074 -40.0852 8.04681 9.65166 -7.93219 20.9928 10.3471 -2.7396 77.1619 -13.1037 80.1875 61.7226 60.4587 64.0017 -23.7165 20.6385 -10.0292 16.2886 -19.2799 11.1948 2.59846 19.275 -7.44574 18.9611 -4.54425 1.41762 -1.18446e-009 1.5602e-007 -4.87131e-009 
129.181 97.1105 -292.76 -5.75106 -4.88945 -44.2493 -15.1534 3.1988 -1.90271 12.4565 37.5283 -4.02751 -17.1459 0.158445 -0.80164 0.0462048 0.000533403 0.662642 3.91227 12.0747 1.90156 -0.000704693 0.0325405 0.00931842 -33.3913 23.2207 37.1504 -3.97569e-016 -2.98177e-016 6.36111e-015 -179.451 -66.134 -151.772 -101.669 54.5998 -35.2396 10.6234 3.92941 -14.3967 22.2589 10.6206 -7.85969 76.7133 -13.3372 79.8846 71.1904 67.2058 62.731 -35.7366 23.2858 -19.1982 15.3717 -19.4508 9.88335 1.96441 19.6792 -4.78523 24.8613 -4.17989 1.79026 -1.18447e-009 1.5602e-007 -4.87132e-009 
129.033 96.5267 -293.028 -6.59341 -6.17824 -41.2964 -16.4858 4.02567 -2.32884 16.1849 44.955 -7.70406 -16.9086 0.765084 -0.836277 0.0462048 0.000533403 0.662642 3.88858 15.185 -0.110882 -0.0245032 0.0856634 0.0676864 -29.7855 22.286 32.1555 3.97569e-016 0 -6.36111e-015 -173.081 -62.4531 -145.088 -107.223 48.4473 -30.3676 10.9518 18.3008 -11.8518 15.7683 17.3234 1.87329 88.6078 -35.2992 81.5623 90.0139 76.4952 55.9564 -46.5053 26.8712 -37.0225 13.2783 -20.3959 5.80375 0.707635 21.3821 0.32767 31.2384 -3.72435 2.16657 -1.18446e-009 1.5602e-007 -4.87132e-009 
128.962 95.8705 -293.35 -7.63996 -8.28535 -36.7087 -18.6427 5.70077 -2.88244 23.4394 51.834 -14.1604 -16.0262 1.22428 -0.832847 0.0462048 0.000533403 0.662642 3.99006 19.3507 -2.38412 -0.0233428 0.0823043 0.0866065 -24.3444 21.6658 24.2769 -1.19271e-015 2.38542e-015 9.54166e-015 -167.516 -58.6224 -139.537 -109.925 44.2781 -28.3176 12.0356 18.1325 -15.7309 15.6802 14.9305 2.32547 88.2617 -50.6147 74.636 137.818 85.5185 21.2347 -52.893 26.7525 -53.0726 9.88583 -21.5523 -0.593782 -0.848586 23.6969 7.39485 37.7043 -2.87794 2.37388 -1.18447e-009 1.5602e-007 -4.87132e-009 
128.952 95.1168 -293.702 -8.387 -10.2924 -32.6758 -21.2676 6.8021 -1.79322 35.4269 57.214 -24.7495 -16.0841 1.69302 -0.941885 0.0462048 0.000533403 0.662642 3.98919 23.475 -2.70442 -0.0180428 0.0729342 0.0857769 -17.4383 20.7851 13.9226 -2.38542e-015 7.95139e-016 6.36111e-015 -162.498 -54.836 -134.527 -111.602 41.7002 -27.4692 12.2476 24.8863 -14.3663 8.65951 14.9602 13.7617 91.0667 -72.7888 68.9471 -81.2763 61.4088 -99.6542 -51.5914 15.2716 -65.7807 6.31196 -23.1303 -6.73987 -2.69391 26.5001 16.1257 44.0449 -1.78675 2.34789 -1.18446e-009 1.5602e-007 -4.87131e-009 
128.926 94.2757 -294.061 -8.87522 -12.1927 -29.2087 -23.7392 7.65458 -0.311838 49.9847 60.4926 -37.9724 -16.1184 2.11234 -0.994415 0.0462048 0.000533403 0.662642 3.83727 27.3816 -1.28626 -0.0079829 0.068354 0.0812969 -9.65172 19.0268 1.64926 -7.95139e-016 1.59028e-015 -0 -157.847 -51.1185 -129.678 -112.839 40.2365 -27.2657 12.7274 23.4051 -16.4886 9.31968 11.9275 11.6315 67.777 -76.5241 46.0429 -55.4717 75.6482 -133.933 -45.6528 7.72417 -58.4716 3.31571 -24.1193 -12.0267 -5.24668 28.5568 25.8613 50.2599 -0.655049 2.13621 -1.18447e-009 1.5602e-007 -4.87131e-009 
128.865 93.4204 -294.401 -9.1583 -13.9842 -26.3225 -26.0446 8.45125 1.54435 62.6598 60.4672 -49.5189 -16.3607 2.16288 -1.0314 0.0462048 0.000533403 0.662642 3.47517 30.9861 1.58408 -0.00101327 0.0542533 0.0668774 -1.74522 15.9116 -11.8102 7.95139e-016 1.59028e-015 -0 -153.519 -47.3681 -124.855 -113.758 39.5553 -27.2484 12.5605 26.2356 -15.392 1.60781 9.56871 18.6299 32.5074 -83.4182 2.97078 17.3485 76.5745 139.422 -35.0582 -5.0236 -54.1574 1.05814 -24.5834 -16.3734 -8.43662 29.5066 36.0787 56.5078 0.527097 1.74859 -1.18446e-009 1.5602e-007 -4.87131e-009 
128.72 92.621 -294.777 -9.29997 -15.6593 -24.0098 -28.099 9.23067 3.63141 71.7871 58.6652 -57.8845 -16.8761 2.21724 -1.04858 0.0462048 0.000533403 0.662642 2.83508 34.2672 5.67139 0.000856494 0.0477728 0.0575276 5.52531 11.2394 -25.8389 -0 -1.59028e-015 -0 -149.566 -43.4631 -120.12 -114.371 39.3885 -27.275 12.6321 24.5798 -16.4039 2.65732 7.33492 13.3234 38.1353 -80.0248 11.2614 39.0751 65.5583 106.035 -18.9658 -9.38433 -37.3254 -0.468313 -24.7031 -19.7819 -10.494 30.0914 44.2449 61.2967 1.46654 1.15741 -1.18447e-009 1.5602e-007 -4.87132e-009 
128.494 91.8968 -295.2 -9.36517 -17.2014 -22.2326 -29.8761 10.0106 5.84888 77.7854 56.1333 -63.5162 -17.5734 2.21899 -1.05515 0.0462048 0.000533403 0.662642 2.20619 36.5066 9.36126 0.0128838 -0.0188824 -0.0479894 10.6864 6.54665 -37.3234 -1.19271e-015 -3.18055e-015 -1.59028e-015 -146.804 -40.8452 -116.464 -109.849 42.4831 -28.2014 10.8749 21.0205 -17.048 -4.88405 5.69383 18.5735 18.7744 -82.7505 -13.3381 47.3192 52.2856 85.5577 -0.542191 -11.3077 -26.3699 -1.45936 -24.547 -22.3908 -11.9132 30.4368 50.7145 65.0646 2.10009 0.668684 -1.18446e-009 1.5602e-007 -4.87132e-009 
128.191 91.2656 -295.661 -9.40581 -18.5851 -20.9279 -31.3504 10.7964 8.08434 81.5732 53.4216 -67.2896 -18.3679 2.2016 -1.05524 0.0462048 0.000533403 0.662642 1.61441 37.8578 12.6055 0.0115763 -0.0136322 -0.0454096 14.2889 2.25657 -46.9409 -3.97569e-016 0 -0 -144.652 -39.1559 -113.38 -107.582 44.4831 -28.764 10.0508 17.3159 -18.2313 -4.58334 5.63071 14.6129 47.0968 -79.7944 18.849 51.0854 39.1727 70.3276 14.6068 -2.60892 -13.0899 -2.0918 -24.1637 -24.3553 -12.9115 30.5038 55.7544 68.0563 2.53731 0.292797 -1.18447e-009 1.5602e-007 -4.87131e-009 
127.822 90.7431 -296.142 -9.45077 -19.7914 -20.0197 -32.5215 11.5901 10.2351 83.8886 50.79 -69.8638 -19.1766 2.19029 -1.05253 0.0462048 0.000533403 0.662642 1.11949 38.4561 15.3257 0.00956396 -0.0103422 -0.0439697 16.7144 -1.22991 -54.9365 -9.93923e-016 0 -0 -142.915 -38.3318 -110.802 -106.606 45.7679 -28.8435 9.51982 16.6691 -17.7836 -4.60757 6.19718 11.1777 60.547 -75.6083 36.3672 54.9742 28.7833 60.0496 26.6614 4.05806 -11.4577 -2.49756 -23.5855 -25.8103 -13.5754 30.2729 59.5724 70.3848 2.84303 0.0045514 -1.18447e-009 1.5602e-007 -4.87132e-009 
